<svg width="213" height="87" xmlns="http://www.w3.org/2000/svg"><g fill="#8C93A8" fill-rule="evenodd" opacity=".638"><path d="M54 69h6v-6h-6zM54 60h6v-6h-6zM54 51h6v-6h-6zM54 78h6v-6h-6zM63 69h6v-6h-6zM63 60h6v-6h-6zM63 51h6v-6h-6zM63 78h6v-6h-6zM72 69h6v-6h-6zM72 51h6v-6h-6zM72 60h6v-6h-6zM72 78h6v-6h-6zM54 87h6v-6h-6zM63 87h6v-6h-6zM72 87h6v-6h-6zM81 69h6v-6h-6zM81 60h6v-6h-6zM81 51h6v-6h-6zM81 78h6v-6h-6zM90 69h6v-6h-6zM90 60h6v-6h-6zM90 51h6v-6h-6zM90 78h6v-6h-6zM99 69h6v-6h-6zM99 51h6v-6h-6zM99 60h6v-6h-6zM99 78h6v-6h-6zM81 87h6v-6h-6zM90 87h6v-6h-6zM99 87h6v-6h-6zM54 24h6v-6h-6zM54 15h6V9h-6zM54 6h6V0h-6zM54 33h6v-6h-6zM63 24h6v-6h-6zM63 15h6V9h-6zM63 6h6V0h-6zM63 33h6v-6h-6zM72 24h6v-6h-6zM72 6h6V0h-6zM72 15h6V9h-6zM72 33h6v-6h-6zM54 42h6v-6h-6zM63 42h6v-6h-6zM72 42h6v-6h-6zM81 24h6v-6h-6zM81 15h6V9h-6zM81 6h6V0h-6zM81 33h6v-6h-6zM90 24h6v-6h-6zM90 15h6V9h-6zM90 6h6V0h-6zM90 33h6v-6h-6zM99 24h6v-6h-6zM99 6h6V0h-6zM99 15h6V9h-6zM99 33h6v-6h-6zM81 42h6v-6h-6zM90 42h6v-6h-6zM99 42h6v-6h-6zM0 69h6v-6H0zM0 60h6v-6H0zM0 51h6v-6H0zM0 78h6v-6H0zM9 69h6v-6H9zM9 60h6v-6H9zM9 51h6v-6H9zM9 78h6v-6H9zM18 69h6v-6h-6zM18 51h6v-6h-6zM18 60h6v-6h-6zM18 78h6v-6h-6zM0 87h6v-6H0zM9 87h6v-6H9zM18 87h6v-6h-6zM27 69h6v-6h-6zM27 60h6v-6h-6zM27 51h6v-6h-6zM27 78h6v-6h-6zM36 69h6v-6h-6zM36 60h6v-6h-6zM36 51h6v-6h-6zM36 78h6v-6h-6zM45 69h6v-6h-6zM45 51h6v-6h-6zM45 60h6v-6h-6zM45 78h6v-6h-6zM27 87h6v-6h-6zM36 87h6v-6h-6zM45 87h6v-6h-6zM0 24h6v-6H0zM0 15h6V9H0zM0 6h6V0H0zM0 33h6v-6H0zM9 24h6v-6H9zM9 15h6V9H9zM9 6h6V0H9zM9 33h6v-6H9zM18 24h6v-6h-6zM18 6h6V0h-6zM18 15h6V9h-6zM18 33h6v-6h-6zM0 42h6v-6H0zM9 42h6v-6H9zM18 42h6v-6h-6zM27 24h6v-6h-6zM27 15h6V9h-6zM27 6h6V0h-6zM27 33h6v-6h-6zM36 24h6v-6h-6zM36 15h6V9h-6zM36 6h6V0h-6zM36 33h6v-6h-6zM45 24h6v-6h-6zM45 6h6V0h-6zM45 15h6V9h-6zM45 33h6v-6h-6zM27 42h6v-6h-6zM36 42h6v-6h-6zM45 42h6v-6h-6zM162 69h6v-6h-6zM162 60h6v-6h-6zM162 51h6v-6h-6zM162 78h6v-6h-6zM171 69h6v-6h-6zM171 60h6v-6h-6zM171 51h6v-6h-6zM171 78h6v-6h-6zM180 69h6v-6h-6zM180 51h6v-6h-6zM180 60h6v-6h-6zM180 78h6v-6h-6zM162 87h6v-6h-6zM171 87h6v-6h-6zM180 87h6v-6h-6zM189 69h6v-6h-6zM189 60h6v-6h-6zM189 51h6v-6h-6zM189 78h6v-6h-6zM198 69h6v-6h-6zM198 60h6v-6h-6zM198 51h6v-6h-6zM198 78h6v-6h-6zM207 69h6v-6h-6zM207 51h6v-6h-6zM207 60h6v-6h-6zM207 78h6v-6h-6zM189 87h6v-6h-6zM198 87h6v-6h-6zM207 87h6v-6h-6zM162 24h6v-6h-6zM162 15h6V9h-6zM162 6h6V0h-6zM162 33h6v-6h-6zM171 24h6v-6h-6zM171 15h6V9h-6zM171 6h6V0h-6zM171 33h6v-6h-6zM180 24h6v-6h-6zM180 6h6V0h-6zM180 15h6V9h-6zM180 33h6v-6h-6zM162 42h6v-6h-6zM171 42h6v-6h-6zM180 42h6v-6h-6zM189 24h6v-6h-6zM189 15h6V9h-6zM189 6h6V0h-6zM189 33h6v-6h-6zM198 24h6v-6h-6zM198 15h6V9h-6zM198 6h6V0h-6zM198 33h6v-6h-6zM207 24h6v-6h-6zM207 6h6V0h-6zM207 15h6V9h-6zM207 33h6v-6h-6zM189 42h6v-6h-6zM198 42h6v-6h-6zM207 42h6v-6h-6zM108 69h6v-6h-6zM108 60h6v-6h-6zM108 51h6v-6h-6zM108 78h6v-6h-6zM117 69h6v-6h-6zM117 60h6v-6h-6zM117 51h6v-6h-6zM117 78h6v-6h-6zM126 69h6v-6h-6zM126 51h6v-6h-6zM126 60h6v-6h-6zM126 78h6v-6h-6zM108 87h6v-6h-6zM117 87h6v-6h-6zM126 87h6v-6h-6zM135 69h6v-6h-6zM135 60h6v-6h-6zM135 51h6v-6h-6zM135 78h6v-6h-6zM144 69h6v-6h-6zM144 60h6v-6h-6zM144 51h6v-6h-6zM144 78h6v-6h-6zM153 69h6v-6h-6zM153 51h6v-6h-6zM153 60h6v-6h-6zM153 78h6v-6h-6zM135 87h6v-6h-6zM144 87h6v-6h-6zM153 87h6v-6h-6zM108 24h6v-6h-6zM108 15h6V9h-6zM108 6h6V0h-6zM108 33h6v-6h-6zM117 24h6v-6h-6zM117 15h6V9h-6zM117 6h6V0h-6zM117 33h6v-6h-6zM126 24h6v-6h-6zM126 6h6V0h-6zM126 15h6V9h-6zM126 33h6v-6h-6zM108 42h6v-6h-6zM117 42h6v-6h-6zM126 42h6v-6h-6zM135 24h6v-6h-6zM135 15h6V9h-6zM135 6h6V0h-6zM135 33h6v-6h-6zM144 24h6v-6h-6zM144 15h6V9h-6zM144 6h6V0h-6zM144 33h6v-6h-6zM153 24h6v-6h-6zM153 6h6V0h-6zM153 15h6V9h-6zM153 33h6v-6h-6zM135 42h6v-6h-6zM144 42h6v-6h-6zM153 42h6v-6h-6z"/></g></svg>