<svg width="87" height="51" xmlns="http://www.w3.org/2000/svg"><g fill="#8C93A8" fill-rule="evenodd" opacity=".638"><path d="M69 51v-6h-6v6zM60 51v-6h-6v6zM51 51v-6h-6v6zM78 51v-6h-6v6zM69 42v-6h-6v6zM60 42v-6h-6v6zM51 42v-6h-6v6zM78 42v-6h-6v6zM69 33v-6h-6v6zM51 33v-6h-6v6zM60 33v-6h-6v6zM78 33v-6h-6v6zM87 51v-6h-6v6zM87 42v-6h-6v6zM87 33v-6h-6v6zM69 24v-6h-6v6zM60 24v-6h-6v6zM51 24v-6h-6v6zM78 24v-6h-6v6zM69 15V9h-6v6zM60 15V9h-6v6zM51 15V9h-6v6zM78 15V9h-6v6zM69 6V0h-6v6zM51 6V0h-6v6zM60 6V0h-6v6zM78 6V0h-6v6zM87 24v-6h-6v6zM87 15V9h-6v6zM87 6V0h-6v6zM24 51v-6h-6v6zM15 51v-6H9v6zM6 51v-6H0v6zM33 51v-6h-6v6zM24 42v-6h-6v6zM15 42v-6H9v6zM6 42v-6H0v6zM33 42v-6h-6v6zM24 33v-6h-6v6zM6 33v-6H0v6zM15 33v-6H9v6zM33 33v-6h-6v6zM42 51v-6h-6v6zM42 42v-6h-6v6zM42 33v-6h-6v6zM24 24v-6h-6v6zM15 24v-6H9v6zM6 24v-6H0v6zM33 24v-6h-6v6zM24 15V9h-6v6zM15 15V9H9v6zM6 15V9H0v6zM33 15V9h-6v6zM24 6V0h-6v6zM6 6V0H0v6zM15 6V0H9v6zM33 6V0h-6v6zM42 24v-6h-6v6zM42 15V9h-6v6zM42 6V0h-6v6z"/></g></svg>