<svg width="51" height="267" xmlns="http://www.w3.org/2000/svg"><g fill="#8C93A8" fill-rule="evenodd" opacity=".638"><path d="M0 249h6v-6H0zM0 240h6v-6H0zM0 231h6v-6H0zM0 258h6v-6H0zM9 249h6v-6H9zM9 240h6v-6H9zM9 231h6v-6H9zM9 258h6v-6H9zM18 249h6v-6h-6zM18 231h6v-6h-6zM18 240h6v-6h-6zM18 258h6v-6h-6zM0 267h6v-6H0zM9 267h6v-6H9zM18 267h6v-6h-6zM27 249h6v-6h-6zM27 240h6v-6h-6zM27 231h6v-6h-6zM27 258h6v-6h-6zM36 249h6v-6h-6zM36 240h6v-6h-6zM36 231h6v-6h-6zM36 258h6v-6h-6zM45 249h6v-6h-6zM45 231h6v-6h-6zM45 240h6v-6h-6zM45 258h6v-6h-6zM27 267h6v-6h-6zM36 267h6v-6h-6zM45 267h6v-6h-6zM0 204h6v-6H0zM0 195h6v-6H0zM0 186h6v-6H0zM0 213h6v-6H0zM9 204h6v-6H9zM9 195h6v-6H9zM9 186h6v-6H9zM9 213h6v-6H9zM18 204h6v-6h-6zM18 186h6v-6h-6zM18 195h6v-6h-6zM18 213h6v-6h-6zM0 222h6v-6H0zM9 222h6v-6H9zM18 222h6v-6h-6zM27 204h6v-6h-6zM27 195h6v-6h-6zM27 186h6v-6h-6zM27 213h6v-6h-6zM36 204h6v-6h-6zM36 195h6v-6h-6zM36 186h6v-6h-6zM36 213h6v-6h-6zM45 204h6v-6h-6zM45 186h6v-6h-6zM45 195h6v-6h-6zM45 213h6v-6h-6zM27 222h6v-6h-6zM36 222h6v-6h-6zM45 222h6v-6h-6z"/><g><path d="M0 159h6v-6H0zM0 150h6v-6H0zM0 141h6v-6H0zM0 168h6v-6H0zM9 159h6v-6H9zM9 150h6v-6H9zM9 141h6v-6H9zM9 168h6v-6H9zM18 159h6v-6h-6zM18 141h6v-6h-6zM18 150h6v-6h-6zM18 168h6v-6h-6zM0 177h6v-6H0zM9 177h6v-6H9zM18 177h6v-6h-6zM27 159h6v-6h-6zM27 150h6v-6h-6zM27 141h6v-6h-6zM27 168h6v-6h-6zM36 159h6v-6h-6zM36 150h6v-6h-6zM36 141h6v-6h-6zM36 168h6v-6h-6zM45 159h6v-6h-6zM45 141h6v-6h-6zM45 150h6v-6h-6zM45 168h6v-6h-6zM27 177h6v-6h-6zM36 177h6v-6h-6zM45 177h6v-6h-6zM0 114h6v-6H0zM0 105h6v-6H0zM0 96h6v-6H0zM0 123h6v-6H0zM9 114h6v-6H9zM9 105h6v-6H9zM9 96h6v-6H9zM9 123h6v-6H9zM18 114h6v-6h-6zM18 96h6v-6h-6zM18 105h6v-6h-6zM18 123h6v-6h-6zM0 132h6v-6H0zM9 132h6v-6H9zM18 132h6v-6h-6zM27 114h6v-6h-6zM27 105h6v-6h-6zM27 96h6v-6h-6zM27 123h6v-6h-6zM36 114h6v-6h-6zM36 105h6v-6h-6zM36 96h6v-6h-6zM36 123h6v-6h-6zM45 114h6v-6h-6zM45 96h6v-6h-6zM45 105h6v-6h-6zM45 123h6v-6h-6zM27 132h6v-6h-6zM36 132h6v-6h-6zM45 132h6v-6h-6z"/></g><g><path d="M0 69h6v-6H0zM0 60h6v-6H0zM0 51h6v-6H0zM0 78h6v-6H0zM9 69h6v-6H9zM9 60h6v-6H9zM9 51h6v-6H9zM9 78h6v-6H9zM18 69h6v-6h-6zM18 51h6v-6h-6zM18 60h6v-6h-6zM18 78h6v-6h-6zM0 87h6v-6H0zM9 87h6v-6H9zM18 87h6v-6h-6zM27 69h6v-6h-6zM27 60h6v-6h-6zM27 51h6v-6h-6zM27 78h6v-6h-6zM36 69h6v-6h-6zM36 60h6v-6h-6zM36 51h6v-6h-6zM36 78h6v-6h-6zM45 69h6v-6h-6zM45 51h6v-6h-6zM45 60h6v-6h-6zM45 78h6v-6h-6zM27 87h6v-6h-6zM36 87h6v-6h-6zM45 87h6v-6h-6zM0 24h6v-6H0zM0 15h6V9H0zM0 6h6V0H0zM0 33h6v-6H0zM9 24h6v-6H9zM9 15h6V9H9zM9 6h6V0H9zM9 33h6v-6H9zM18 24h6v-6h-6zM18 6h6V0h-6zM18 15h6V9h-6zM18 33h6v-6h-6zM0 42h6v-6H0zM9 42h6v-6H9zM18 42h6v-6h-6zM27 24h6v-6h-6zM27 15h6V9h-6zM27 6h6V0h-6zM27 33h6v-6h-6zM36 24h6v-6h-6zM36 15h6V9h-6zM36 6h6V0h-6zM36 33h6v-6h-6zM45 24h6v-6h-6zM45 6h6V0h-6zM45 15h6V9h-6zM45 33h6v-6h-6zM27 42h6v-6h-6zM36 42h6v-6h-6zM45 42h6v-6h-6z"/></g></g></svg>